<svg xmlns="http://www.w3.org/2000/svg" viewBox="0 0 128 128"><title>icon11.1glyph</title><g id="open_sign" data-name="open sign"><path d="M41.56,81.48a2.19,2.19,0,0,0-2.18,2.18V88a2.18,2.18,0,0,0,4.36,0V83.66A2.19,2.19,0,0,0,41.56,81.48Z"/><path d="M55.05,81.48v2.06c.89,0,1.78.08,1.78-1S56,81.48,55.05,81.48Z"/><path d="M112.15,62.45H15.85a8,8,0,0,0-8,8v31.1a8,8,0,0,0,8,8h96.3a8,8,0,0,0,8-8V70.45A8,8,0,0,0,112.15,62.45ZM35.3,103.55H18.85a5,5,0,0,1-5-5V82.1a2,2,0,0,1,4,0V98.55a1,1,0,0,0,1,1H35.3a2,2,0,0,1,0,4ZM47.74,88a6.18,6.18,0,0,1-12.36,0V83.66a6.18,6.18,0,0,1,12.36,0Zm11.48-1.91a6.93,6.93,0,0,1-4.17,1.48v4.61a2,2,0,0,1-4,0V79.81a2.09,2.09,0,0,1,1.63-2c1.28-.28,4.45-.76,6.53.91a4.44,4.44,0,0,1,1.63,3.63A4.86,4.86,0,0,1,59.22,86.07Zm8.52-1.77h5A2.06,2.06,0,0,1,74.85,86a2,2,0,0,1-2,2.32H67.74a.5.5,0,0,0-.5.5V90a.5.5,0,0,0,.5.5h5.14a2,2,0,0,1,2,2.32,2.06,2.06,0,0,1-2.07,1.68H66.24a3,3,0,0,1-3-3V81.09a3,3,0,0,1,3-3h6.54a2.06,2.06,0,0,1,2.07,1.68,2,2,0,0,1-2,2.32H67.74a.5.5,0,0,0-.5.5V83.8A.5.5,0,0,0,67.74,84.3Zm24.88,7.58a2.1,2.1,0,0,1-3.72,1.33l-6.73-8.16v7.11a2,2,0,0,1-4,0V79.76a2.1,2.1,0,0,1,3.72-1.33l6.73,8.16V79.48a2,2,0,0,1,4,0Zm21.53-2a2,2,0,0,1-4,0V73.45a1,1,0,0,0-1-1H92.7a2,2,0,0,1,0-4h16.45a5,5,0,0,1,5,5Z"/><path d="M71,20.16a6.23,6.23,0,0,0,.13-1.3,7.11,7.11,0,0,0-14.22,0,6.23,6.23,0,0,0,.13,1.3L19.85,58.45h5.58L59,23.88a7.1,7.1,0,0,0,10,0l33.55,34.57h5.58ZM64,22a3.11,3.11,0,1,1,3.11-3.1A3.11,3.11,0,0,1,64,22Z"/></g></svg>